<svg xmlns="http://www.w3.org/2000/svg" width="1920" height="1080" viewBox="0 0 1920 1080">
  <defs>
    <linearGradient id="sky" x1="0%" y1="0%" x2="100%" y2="100%">
      <stop offset="0%" style="stop-color:#1e3a5f"/>
      <stop offset="100%" style="stop-color:#4a90c2"/>
    </linearGradient>
    <linearGradient id="mountain" x1="0%" y1="0%" x2="0%" y2="100%">
      <stop offset="0%" style="stop-color:#ffffff"/>
      <stop offset="100%" style="stop-color:#94a3b8"/>
    </linearGradient>
  </defs>
  <rect width="1920" height="1080" fill="url(#sky)"/>
  <polygon points="0,700 480,300 960,650 1440,250 1920,600 1920,1080 0,1080" fill="url(#mountain)" opacity="0.9"/>
  <polygon points="0,800 320,500 640,750 1100,400 1600,700 1920,550 1920,1080 0,1080" fill="#64748b" opacity="0.7"/>
  <rect y="850" width="1920" height="230" fill="#166534"/>
  <circle cx="960" cy="200" r="80" fill="#c8102e" opacity="0.95"/>
  <path d="M960 120 L980 180 L1040 180 L990 215 L1010 275 L960 240 L910 275 L930 215 L880 180 L940 180 Z" fill="#ffffff"/>
  <text x="960" y="980" text-anchor="middle" fill="#ffffff" font-family="system-ui,sans-serif" font-size="48" font-weight="bold" opacity="0.6"><×<µ O CANADA <×<µ</text>
</svg>
